<svg xmlns="http://www.w3.org/2000/svg" version="1.1" xmlns:xlink="http://www.w3.org/1999/xlink"
     xmlns:svgjs="http://svgjs.dev/svgjs" width="2000" height="1500" viewBox="0 0 2000 1500">
    <rect width="2000" height="1500" fill="red"></rect>
    <g transform="matrix(0.75,0,0,0.75,249.090909090909,451.31056593707433)">
        <svg viewBox="0 0 396 158" data-background-color="#ca3433" preserveAspectRatio="xMidYMid meet" height="797"
             width="2000" xmlns="http://www.w3.org/2000/svg" xmlns:xlink="http://www.w3.org/1999/xlink">
            <g id="tight-bounds" transform="matrix(1,0,0,1,0.2400000000000091,-0.04904963288623776)">
                <svg viewBox="0 0 395.52 158.09809926577248" height="158.09809926577248" width="395.52">
                    <g>
                        <svg viewBox="0 0 395.52 158.09809926577248" height="158.09809926577248" width="395.52">
                            <g transform="matrix(1,0,0,1,0,81.52268541871126)">
                                <svg viewBox="0 0 395.52 76.57541384706121" height="76.57541384706121" width="395.52">
                                    <g id="textblocktransform">
                                        <svg viewBox="0 0 395.52 76.57541384706121" height="76.57541384706121"
                                             width="395.52" id="textblock">
                                            <g>
                                                <svg viewBox="0 0 395.52 76.57541384706121" height="76.57541384706121"
                                                     width="395.52">
                                                    <g transform="matrix(1,0,0,1,0,0)">
                                                        <svg width="395.52"
                                                             viewBox="-2.153050000000002 -18.47798 242.96423000000004 47.039565152348814"
                                                             height="76.57541384706121" data-palette-color="#ffffff">
                                                            <path d="M20.753-14.822l-18.199 28.723-4.707-1.039 20.63-31.34 3.008 0.664zM23.333 18.488l-4.465-33.726 0.615-3.018 2.988 0.66 5.54 37.116zM25.558 5.717l-0.814 3.691-19.247-4.248 0.815-3.691zM39.965 17.422l10.572-20.605 4.539 0.748-13.453 24.184-2.99-0.493zM37.71-5.297l3.617 23.065-0.109 3.914-2.97-0.489-5.077-27.239zM63.768-1.299l-3.433 25.823-4.46-0.593 3.432-25.823zM59.883-8.806v0c0.093-0.701 0.391-1.27 0.893-1.707 0.501-0.431 1.181-0.589 2.04-0.476v0c0.859 0.114 1.484 0.446 1.876 0.996 0.384 0.555 0.529 1.183 0.435 1.884v0c-0.091 0.687-0.394 1.242-0.907 1.665-0.52 0.422-1.21 0.576-2.069 0.461v0c-0.859-0.114-1.475-0.441-1.847-0.981-0.372-0.54-0.512-1.154-0.421-1.842zM83.626 22.274l1.225-13.354c0.143-1.553-0.206-2.831-1.044-3.831-0.831-1.007-2.143-1.593-3.936-1.757v0c-1.102-0.101-2.089 0.002-2.961 0.311-0.872 0.308-1.569 0.753-2.091 1.334-0.522 0.581-0.816 1.237-0.883 1.968v0l-4.481-0.412c0.114-1.241 0.646-2.411 1.597-3.508 0.958-1.097 2.241-1.953 3.851-2.569 1.617-0.622 3.471-0.836 5.562-0.645v0c1.885 0.173 3.526 0.645 4.921 1.416 1.395 0.777 2.445 1.848 3.15 3.211 0.706 1.357 0.97 3.005 0.792 4.943v0l-1.109 12.079c-0.079 0.863-0.087 1.79-0.024 2.78 0.063 0.99 0.215 1.847 0.457 2.572v0l-0.036 0.389-4.68-0.43c-0.179-0.532-0.292-1.232-0.34-2.099-0.048-0.868-0.038-1.667 0.03-2.398zM85.429 11.052l-0.237 3.121-4.461-0.409c-2.523-0.231-4.508-0.012-5.955 0.659-1.447 0.671-2.244 1.806-2.391 3.405v0c-0.115 1.248 0.207 2.342 0.964 3.282 0.757 0.94 1.943 1.484 3.556 1.632v0c1.361 0.125 2.589-0.054 3.684-0.536 1.088-0.476 1.976-1.111 2.665-1.904 0.682-0.794 1.082-1.578 1.2-2.35v0l1.727 2.307c-0.174 0.66-0.548 1.376-1.121 2.147-0.566 0.765-1.294 1.481-2.186 2.149-0.891 0.668-1.924 1.196-3.098 1.584-1.173 0.381-2.463 0.507-3.87 0.377v0c-1.753-0.161-3.258-0.64-4.518-1.438-1.259-0.798-2.197-1.815-2.813-3.05-0.623-1.235-0.869-2.563-0.739-3.984v0c0.256-2.795 1.507-4.819 3.751-6.073 2.244-1.254 5.148-1.717 8.713-1.39v0zM107.383 1.96l-0.151 3.396-14.086-0.629 0.151-3.397zM98.315-4.782l4.496 0.201-1.158 25.904c-0.04 0.899 0.066 1.578 0.32 2.037 0.253 0.458 0.593 0.771 1.019 0.936 0.426 0.166 0.889 0.26 1.389 0.282v0c0.366 0.016 0.754 0 1.163-0.048 0.416-0.041 0.721-0.085 0.916-0.129v0l-0.14 3.587c-0.358 0.097-0.822 0.183-1.393 0.258-0.578 0.081-1.266 0.104-2.065 0.068v0c-1.092-0.049-2.085-0.31-2.978-0.784-0.893-0.474-1.59-1.232-2.09-2.275-0.501-1.043-0.712-2.431-0.635-4.163v0zM110.121 15.306l0.002-0.56c0.01-2.52 0.502-4.771 1.476-6.755 0.968-1.99 2.337-3.561 4.108-4.714 1.771-1.16 3.867-1.735 6.287-1.726v0c2.46 0.009 4.578 0.601 6.353 1.775 1.776 1.167 3.136 2.749 4.082 4.746 0.952 1.99 1.424 4.246 1.414 6.765v0l-0.003 0.56c-0.01 2.5-0.498 4.748-1.466 6.745-0.961 1.99-2.33 3.561-4.108 4.714-1.778 1.146-3.887 1.715-6.327 1.705v0c-2.44-0.009-4.544-0.594-6.313-1.754-1.769-1.167-3.129-2.749-4.081-4.746-0.959-2.004-1.434-4.256-1.424-6.755zM114.633 14.763l-0.002 0.56c-0.007 1.713 0.257 3.301 0.791 4.763 0.541 1.462 1.353 2.639 2.437 3.53 1.077 0.884 2.442 1.329 4.094 1.336v0c1.64 0.006 3.002-0.428 4.085-1.305 1.09-0.882 1.911-2.053 2.464-3.51 0.546-1.458 0.822-3.044 0.828-4.757v0l0.003-0.56c0.007-1.713-0.257-3.301-0.792-4.763-0.541-1.469-1.356-2.649-2.446-3.54-1.09-0.898-2.461-1.35-4.115-1.356v0c-1.62-0.006-2.975 0.435-4.065 1.325-1.097 0.882-1.918 2.056-2.464 3.52-0.539 1.458-0.812 3.044-0.818 4.757zM155.317-8.144l2.65 34.95-4.656 0.353-2.651-34.95zM171.129 6.492l0.284 3.749-15.625 1.185-0.284-3.749zM172.308-9.433l0.286 3.77-17.998 1.365-0.286-3.77zM182.147-1.615l2.968 25.88-4.471 0.513-2.968-25.88zM176.549-7.948v0c-0.081-0.702 0.069-1.327 0.449-1.874 0.381-0.54 1.002-0.86 1.863-0.958v0c0.861-0.099 1.548 0.071 2.062 0.508 0.507 0.445 0.801 1.019 0.881 1.721v0c0.079 0.689-0.079 1.301-0.474 1.836-0.402 0.536-1.033 0.853-1.893 0.952v0c-0.861 0.099-1.538-0.069-2.031-0.502-0.493-0.433-0.778-0.994-0.857-1.683zM192.221-14.042l5.073 36.631-4.458 0.617-5.073-36.63zM205.375-0.127l4.028 20.478-4.416 0.868-5.027-25.56 4.18-0.822zM205.793 6.762l-2.066 0.325c-0.445-2.331-0.458-4.489-0.041-6.474 0.423-1.992 1.296-3.669 2.619-5.03 1.328-1.369 3.133-2.277 5.416-2.726v0c2.394-0.471 4.507-0.159 6.339 0.934 1.84 1.099 3.074 3.244 3.702 6.437v0l3.35 17.033-4.425 0.871-3.308-16.818c-0.264-1.341-0.698-2.373-1.302-3.097-0.611-0.722-1.361-1.186-2.251-1.392-0.891-0.212-1.889-0.209-2.995 0.008v0c-1.276 0.251-2.297 0.69-3.063 1.316-0.767 0.626-1.33 1.393-1.688 2.299-0.366 0.901-0.562 1.891-0.588 2.969-0.026 1.079 0.075 2.193 0.301 3.345zM221.881 1.091l-2.778 1.474c-0.352-1.86-0.3-3.685 0.157-5.473 0.463-1.79 1.35-3.343 2.66-4.662 1.312-1.311 3.053-2.18 5.225-2.607v0c1.825-0.359 3.439-0.34 4.842 0.057 1.403 0.397 2.568 1.207 3.495 2.431 0.927 1.224 1.602 2.912 2.025 5.064v0l3.304 16.799-4.415 0.868-3.312-16.837c-0.282-1.433-0.724-2.507-1.327-3.225-0.61-0.716-1.351-1.154-2.226-1.315-0.875-0.168-1.863-0.143-2.961 0.073v0c-0.962 0.189-1.776 0.523-2.443 1-0.668 0.471-1.194 1.043-1.578 1.717-0.384 0.673-0.631 1.405-0.741 2.194-0.116 0.791-0.092 1.605 0.073 2.442z"
                                                                  opacity="1" transform="matrix(1,0,0,1,0,0)"
                                                                  fill="white" class="wordmark-text-0"
                                                                  data-fill-palette-color="primary" id="text-0"></path>
                                                        </svg>
                                                    </g>
                                                </svg>
                                            </g>
                                        </svg>
                                    </g>
                                </svg>
                            </g>
                            <g transform="matrix(1,0,0,1,161.86527475919004,0)">
                                <svg viewBox="0 0 71.7894504816199 76.57541384706121" height="76.57541384706121"
                                     width="71.7894504816199">
                                    <g>
                                        <svg xmlns="http://www.w3.org/2000/svg" xmlns:xlink="http://www.w3.org/1999/xlink" version="1.1" x="0" y="0" viewBox="5 2 90 96" enable-background="new 0 0 100 100" xml:space="preserve" height="76.57541384706121" width="71.7894504816199" class="icon-icon-0" data-fill-palette-color="accent" id="icon-0"><g fill="#ffffff" data-fill-palette-color="accent"><path fill="#ffffff" d="M84.406 2H15.594C9.979 2 5 6.346 5 11.706v76.591C5 93.654 9.979 98 15.594 98h68.812C90.018 98 95 93.654 95 88.297V11.706C95 6.346 90.018 2 84.406 2zM26 84H16v-7h10V84zM26 64H16v-7h10V64zM26 43H16v-7h10V43zM26 23H16v-7h10V23zM84 84H74v-7h10V84zM84 64H74v-7h10V64zM84 43H74v-7h10V43zM84 23H74v-7h10V23z" data-fill-palette-color="accent"></path></g></svg>
                                    </g>
                                </svg>
                            </g>
                            <g></g>
                        </svg>
                    </g>
                    <defs></defs>
                </svg>
                <rect width="395.52" height="158.09809926577248" fill="none" stroke="none" visibility="hidden"></rect>
            </g>
        </svg>
    </g>
</svg>
